<svg width="296" height="300" viewBox="0 0 296 300" fill="none" xmlns="http://www.w3.org/2000/svg">
<path fill-rule="evenodd" clip-rule="evenodd" d="M296 19V1.28511e-05L149 0V19L279.948 19L279.948 281H149V300H296V281V19ZM147 2.81099e-05H0V19V281V300H147V281H16.0517L16.0517 19H147V2.81099e-05Z" fill="url(#paint0_linear)"/>
<path fill-rule="evenodd" clip-rule="evenodd" d="M159.698 94.5192L159.698 90.9632L88.5774 90.9632L88.5774 90.9694L88.5712 90.9694L88.5712 162.09H92.1272L92.1272 94.5192L159.698 94.5192Z" fill="url(#paint1_linear)"/>
<path fill-rule="evenodd" clip-rule="evenodd" d="M136.106 206.069L136.106 209.625L207.227 209.625L207.227 209.619L207.233 209.619L207.233 138.498H203.677L203.677 206.069L136.106 206.069Z" fill="url(#paint2_linear)"/>
<defs>
<linearGradient id="paint0_linear" x1="13.0588" y1="13.2353" x2="299.798" y2="296.151" gradientUnits="userSpaceOnUse">
<stop offset="0.0596846" stop-color="#C3073F"/>
<stop offset="1" stop-color="#950740"/>
</linearGradient>
<linearGradient id="paint1_linear" x1="122.647" y1="60.1883" x2="149.231" y2="145.525" gradientUnits="userSpaceOnUse">
<stop offset="0.0596846" stop-color="#F2F2F2"/>
<stop offset="1" stop-color="#F9F9F9"/>
</linearGradient>
<linearGradient id="paint2_linear" x1="173.157" y1="240.4" x2="146.573" y2="155.063" gradientUnits="userSpaceOnUse">
<stop offset="0.0596846" stop-color="#F2F2F2"/>
<stop offset="1" stop-color="#F9F9F9"/>
</linearGradient>
</defs>
</svg>
